<?xml version="1.0" encoding="UTF-8" standalone="no"?>
<!DOCTYPE svg PUBLIC "-//W3C//DTD SVG 1.1//EN" "http://www.w3.org/Graphics/SVG/1.1/DTD/svg11.dtd">
<svg width="100%" height="100%" viewBox="0 0 225 225" version="1.1" xmlns="http://www.w3.org/2000/svg" xmlns:xlink="http://www.w3.org/1999/xlink" xml:space="preserve" xmlns:serif="http://www.serif.com/" style="fill-rule:evenodd;clip-rule:evenodd;stroke-linecap:round;stroke-linejoin:round;stroke-miterlimit:1.5;">
    <g id="Layer1" transform="matrix(0.882997,0,0,0.882997,13,13.1628)">
        <path d="M0,20L110,0L225,20C225,20 225.83,111.659 225,112C224.17,112.341 113,92 113,92L0,112L0,20Z" style="fill:rgb(222,223,223);"/>
        <path d="M0,204L112,225C112,225 226.19,203.683 225,204C223.81,204.317 225,113 225,113C225,113 113.066,132.6 113,133C112.934,133.4 0,112.004 0,112.004L0,204Z" style="fill:rgb(104,104,103);"/>
        <path d="M129,147L146,189L164,189C164,189 172.399,163.588 172,163C171.601,162.412 179,189 179,189L198,189L214,147L199,147L189,176L180,147L164,147L155,176L144,147C144,147 129.174,146.794 129,147Z" style="fill:white;stroke:white;stroke-width:1.13px;"/>
        <path d="M70.918,158C71.033,167.999 70.918,173 70.918,179C70.918,179 71.945,189 81,189L118.95,189C125,189 130,183 130,177L130,159C130,154 126,147 116,147L82,147C77,147 70.85,152 70.918,158ZM84,163L84,173C84,173 83,179 88,179L110,179C115,179 116,178 116,174L116,163C116,158 114,158 110,158L90,158C85,158 84,159 84,163Z" style="fill:white;stroke:white;stroke-width:1.13px;"/>
        <path d="M14,36L15,76L27,76L27,61L57,61L57,76L70,76L70,36L57,36L57,51L28,51L28,36L14,36Z" style="stroke:black;stroke-width:1.13px;"/>
        <path d="M75,36C75,36 74.625,75.919 75,76C75.375,76.081 87,76 87,76L88,36L75,36Z" style="stroke:black;stroke-width:1.13px;"/>
        <path d="M92.833,48C92.428,59.135 92.833,66 92.833,66C92.833,66 93,76 105,76.036C105.214,76.036 137,76 137,76C137,76 142.484,76.145 145,73C149,68 147,54 147,54L118,54L118,61L135,61C135,63 136,68 131,68L110,68C104,68 105,61 105,61L105,50C105,44 109.919,45.067 110,45C110.081,44.933 126,45 131,45C136,45 135,49 135,49L147,49C147,35 137,36 137,36L106,36C106,36 93.238,36.865 92.833,48Z" style="stroke:black;stroke-width:1.13px;"/>
        <path d="M152.153,36L152.153,76.036L164,76.036L164,61L194,61L194,76.036L207,76.036L207,36L194,36L194,51L164,51L164,36L152.153,36Z" style="fill:rgb(2,0,0);stroke:black;stroke-width:1.13px;"/>
        <path d="M18,147L18,189L67,189L67,178L32,178L32,147L18,147Z" style="fill:white;stroke:white;stroke-width:1.13px;"/>
    </g>
</svg>
