<?xml version="1.0" encoding="UTF-8" standalone="no"?>
<!DOCTYPE svg PUBLIC "-//W3C//DTD SVG 1.1//EN" "http://www.w3.org/Graphics/SVG/1.1/DTD/svg11.dtd">
<svg width="100%" height="100%" viewBox="0 0 225 225" version="1.1" xmlns="http://www.w3.org/2000/svg" xmlns:xlink="http://www.w3.org/1999/xlink" xml:space="preserve" xmlns:serif="http://www.serif.com/" style="fill-rule:evenodd;clip-rule:evenodd;stroke-linecap:round;stroke-linejoin:round;stroke-miterlimit:1.5;">
    <g id="Layer1">
        <g transform="matrix(1.00442,0,0,1,0.0102351,28.0498)">
            <path d="M113,148C113,148 117.11,142.548 117,142C116,137 87,129 86,155C85.347,171.98 96.78,176.647 106,176C112.515,175.542 117.586,172.07 118,170C118.196,169.019 113,164 113,164C91,183 91,130 113,148Z" style="fill:white;stroke:white;stroke-width:1px;"/>
        </g>
        <g transform="matrix(1.00442,0,0,1,0.0102351,28.0498)">
            <path d="M122,120L122,175C122,175 134.37,175.556 134,175C133.63,174.444 134,158 134,158L138,158L147,175L159,175L147,154L159,138L147,138L137,151L134,151L134,120L122,120Z" style="fill:white;stroke:white;stroke-width:1px;"/>
        </g>
        <g transform="matrix(1.00442,0,0,1,0.0102351,28.0498)">
            <path d="M207,126L215,126L215,137.555L224,137.555L224,145L215,145L215,165C215,165 215.175,169.304 221,167L224,172C224,172 222.03,175.497 214,175.734C205,176 203.992,166.172 204,166C204.008,165.828 204,145 204,145L198,145L198,138L204,138C207,132 206,131 207,126Z" style="fill:white;stroke:white;stroke-width:1px;"/>
        </g>
        <g transform="matrix(1.00442,0,0,1,0.0102351,28.0498)">
            <path d="M117.026,5.898C123.83,1.878 132.171,-0.364 142,0C169,1 185.772,22.358 186.004,45.967C186.221,68.144 172.487,91.578 144.762,94C134.078,94.933 125.147,93.168 117.929,89.525C156.184,72.685 151.41,24.072 117.026,5.898Z" style="fill:rgb(0,154,249);stroke:rgb(0,154,249);stroke-width:1px;"/>
        </g>
        <g transform="matrix(1.00442,0,0,1,0.0102351,28.0498)">
            <path d="M117.929,89.525C113.536,91.478 108.563,92.997 103,94L66,94L52,108C52,108 51.884,10.134 52,10C52.116,9.866 50.425,-0.866 60,0C69.575,0.866 99.135,-0.16 100,0C106.291,1.165 111.985,3.185 117.026,5.898C87.502,23.265 86.67,73.832 117.929,89.525Z" style="fill:rgb(25,76,221);stroke:rgb(25,76,221);stroke-width:1px;"/>
        </g>
        <g transform="matrix(1.00442,0,0,1,0.0102351,28.0498)">
            <path d="M117.026,5.898C87.498,23.26 86.668,73.837 117.929,89.525C156.186,72.69 151.41,24.076 117.026,5.898Z" style="fill:rgb(0,46,216);stroke:rgb(25,76,221);stroke-width:1px;"/>
        </g>
        <g transform="matrix(1.00442,0,0,1,0.0102351,28.0498)">
            <path d="M127.453,45.338C125.976,45.457 125.375,46.091 125.521,45.945" style="fill:none;stroke:rgb(25,76,221);stroke-width:5.63px;"/>
        </g>
        <g transform="matrix(1.00442,0,0,1,0.0102351,28.0498)">
            <path d="M171,158C171,158 194.554,158.47 195,158C195.446,157.53 197,140.203 184,138C169.105,135.476 160,144 161,156C161.699,164.383 165,174 175,175.247C180.267,175.904 185,177 195,170L191,164C190.057,166.51 172,175 171,158ZM0,122C0,122 -0.023,174.865 0,175C0.023,175.135 12,175 12,175L12,157C12,157 40,161 40,140C40,121 20.767,122.405 21,122C21.233,121.595 0,122 0,122ZM179.173,143.997L179.259,143.997C180.084,144 180.911,144.095 181.699,144.351C182.172,144.505 182.627,144.716 183.045,144.985C183.301,145.15 183.542,145.336 183.767,145.541C183.928,145.689 184.08,145.846 184.223,146.012C185.204,147.148 185.702,148.63 185.901,150.098C185.941,150.389 185.969,150.682 185.985,150.976C186.005,151.317 186.006,151.658 185.997,152L171,152C171,152 171.171,144.199 179,144C179.058,143.999 179.116,143.998 179.173,143.997ZM12,131L12,148C11.926,148.026 15.751,148.495 20,148C24.249,147.505 27.923,146.047 28,140C28.089,133.018 24.54,131.428 20,131C16.087,130.631 12,131 12,131Z" style="fill:white;stroke:white;stroke-width:1px;"/>
        </g>
        <g transform="matrix(1.00442,0,0,1,0.0102351,28.0498)">
            <path d="M81.01,156.738C81.142,155.771 82.223,174.658 63,176C42.895,177.403 43,156 43,156C43,156 41.846,137.632 62,137C80.616,136.416 81.052,154.321 81.01,156.738C81.004,156.782 81,156.868 81,157C81,157.031 81.007,156.937 81.01,156.738ZM62,145C62,145 54.16,143.749 54,156C53.84,168.251 60.643,168.145 62,168C63.357,167.855 70,168 70,157C70,145.955 65,145 62,145Z" style="fill:white;stroke:white;stroke-width:1px;"/>
        </g>
    </g>
</svg>
