<?xml version="1.0" encoding="UTF-8" standalone="no"?>
<!DOCTYPE svg PUBLIC "-//W3C//DTD SVG 1.1//EN" "http://www.w3.org/Graphics/SVG/1.1/DTD/svg11.dtd">
<svg width="100%" height="100%" viewBox="0 0 225 225" version="1.1" xmlns="http://www.w3.org/2000/svg" xmlns:xlink="http://www.w3.org/1999/xlink" xml:space="preserve" xmlns:serif="http://www.serif.com/" style="fill-rule:evenodd;clip-rule:evenodd;stroke-linecap:round;stroke-linejoin:round;stroke-miterlimit:1.5;">
    <path d="M182,169.852L193,169.85L198,180L203,169.852L213,169.852L203,185L214,200.811L202,200.811L198,190L192,200.635L182,200.635L193,185C193,185 181.732,170.135 182,169.852Z" style="fill:white;stroke:white;stroke-width:1px;"/>
    <path d="M176.905,193.146C176.906,192.991 178.055,199 178.055,199C178.055,199 173.41,200.521 171,200.811C168.491,201.113 163.188,200.833 163,200.811C156,200 152,192 151.94,188C151.911,185.999 151.911,186 151.94,182C152,174 160,170 164,169.85C168,169.701 169,169.852 169,169.852C169,169.852 180,169 180,187L159.951,187C159.951,187 159,193 164.998,194C167.758,194.46 175.855,193.674 176.905,193.146ZM160,182L172,182C172,182 173,175 166,175C159,175 160,182 160,182Z" style="fill:white;stroke:white;stroke-width:1px;"/>
    <path d="M48,207L51,201L40,198C40,198 51,191 51,178C51,159 36,157 30,157C21,157 11,166.955 11,178C11,192 18,200 30,200L34,200L48,207ZM31,164C25,164 20,170 20,178C20,188 25.901,193 31,193C35,193 42,190 42,179C42,166 35,164 31,164Z" style="fill:white;stroke:white;stroke-width:1px;"/>
    <path d="M57,188C57,167 57,170 57,170L66,170L66,189C66,196 77,195 77,189L77,170L86,170L86,200L78,200L78,196C64,207 57,196 57,188Z" style="fill:white;stroke:white;stroke-width:1px;"/>
    <path d="M93,184C93.712,174.025 100.999,169.761 109,169.852C122,170 124,180 124,185C124,193 119,200 109,200.635C103.841,200.963 92,198 93,184ZM109,175C104,175 102,180 102,185C102,192 106,194 109,194C112,194 115,190 115,185C115,179 113,175 109,175Z" style="fill:white;stroke:white;stroke-width:1px;"/>
    <path d="M127.94,169.852L128,176L132,176C132,176 131.007,188.894 132,193C132.759,196.138 132.94,199.738 137.959,200.635C140,201 141,201.291 144,200.95C145.454,200.784 148,199 148,199L148,193C148,193 146,194 144,194C141.764,194 141,193 141,190C141,186.87 140.961,176.215 141,176L148,176L148,169.852L141,169.85L141,161L132,163L132,169.85L127.94,169.852Z" style="fill:white;stroke:white;stroke-width:1px;"/>
    <g id="Layer1">
        <path d="M52,53L79,37L79,48L61,58L61,116L70,121L70,75L80,75L80,127L88,132L89,62L99,62L98,137C98,137 106.993,141.727 107,142C107.007,142.273 107,32 107,32L89,43L89,32L113,18L136,32L136,43L117,32L117,143L126,137L126,61L136,61L136,131L144,127L144,75L154,75L154,121L163,116L163,59L145,48L145,37L172,53L173,121L112,156L52,122L52,53Z" style="fill:rgb(160,0,42);stroke:black;stroke-width:1px;"/>
    </g>
</svg>
